<?xml version="1.0" encoding="UTF-8"?>
<svg id="Layer_1" data-name="Layer 1" xmlns="http://www.w3.org/2000/svg" viewBox="0 0 397.76 470.77">
  <defs>
    <style>
      .cls-1 {
        font-family: GoogleSans-Medium, 'Google Sans';
        font-size: 62.37px;
      }

      .cls-1, .cls-2 {
        font-weight: 500;
      }

      .cls-1, .cls-3 {
        fill: #053dc8;
      }

      .cls-2 {
        fill: #eea210;
        font-family: NotoSansHebrew-Medium, 'Noto Sans Hebrew';
        font-size: 38.18px;
        font-variation-settings: 'wght' 500, 'wdth' 100;
      }
    </style>
  </defs>
  <path class="cls-3" d="M94.01,269.38c-.12,20.09,3.73,41.53-13.89,55.62-22.04,17.62-53.59,5.58-59.97-21.18-1.78-71.03-.27-142.35-.76-213.48C26.33,18.06,112.45-16.58,165.99,35.53c16.8,16.35,26.22,38.52,27.36,61.99,2.4,49.45-1.85,100.84-.03,150.49,2.2,13.1,19.83,14.13,23.78,1.51,2.61-23.18-9.43-63.03,25.25-65.63,28.52-2.14,59.69,1.65,88.5.03,13.21-2.53,13.97-20.06,1.06-23.94-29.18-1.9-60.65,2.05-89.56-.12-11.22-.84-21.01-7.68-23.93-18.8-2.78-10.6-1.53-46.75.35-58.38,6.32-38.98,40.74-69.68,80.15-72.12,16.03-.99,42.56-1.34,58.33.1,33.81,3.1,46.57,45.76,19.59,66.98-18.09,14.23-52.26,4.52-74.12,7.73-3.77.55-7.79,3.39-9.33,6.92-.27.62-1.36,4.29-1.36,4.66v37.62h41.83c2.92,0,10.97,3.34,13.73,4.93,24.36,14.03,24.99,49.18.97,63.93-3.45,2.12-12.01,5.77-15.9,5.77h-40.62c-1.03,19.72,2.47,41.02-2.7,60.19-22.83,84.69-143.33,84.33-167.62-.61-.05-.19.05-.41,0-.6-1.42-5.23-2.37-10.53-3.03-15.92l.02-154.09c-.85-16.05-21.82-17.66-24.67-1.82-.25,57.27.34,114.57,0,171.83,0,.4,0,.8,0,1.2ZM267.35,134.57v-42.43c0-1.39,2.21-7.46,2.9-9.14,13.96-33.74,56.89-20.53,85.3-23.04,9.19-.81,14.14-11.48,8.7-18.98-2.96-4.08-6.8-5.36-11.71-5.74-15.58-1.22-50.91-1.35-65.32,2.73-21.16,6-44.54,29.99-44.54,52.96v43.63h24.68ZM242.67,209.2v41.83c0,6.42-7.26,18.55-12.03,22.88-23.66,21.46-60.32,5.34-62.62-25.86l.02-155.29c-9.68-78.3-120.04-75.26-124,5.98v196.25c.49,15.46,20.98,18.14,24.65,2.93l.06-203.36c5.93-45.51,68.8-45.6,74.64-.03l-.02,154.09c3.74,56.15,72.37,80.88,109.24,37.63,19.38-22.74,14.13-49.3,14.74-77.04h-24.68Z"/>
  <text class="cls-1" transform="translate(16.58 408.33)"><tspan x="0" y="0">Nachle Feed</tspan></text>
  <text class="cls-2" transform="translate(14.13 452.75)"><tspan x="0" y="0">כל המידע, מתי שצריך.</tspan></text>
</svg>